<svg xmlns="http://www.w3.org/2000/svg" viewBox="0 0 100 100">
  <defs>
    <linearGradient id="grad1" x1="0%" y1="0%" x2="100%" y2="100%">
      <stop offset="0%" style="stop-color:#3b82f6;stop-opacity:1" />
      <stop offset="100%" style="stop-color:#8b5cf6;stop-opacity:1" />
    </linearGradient>
  </defs>
  
  <!-- Background Circle -->
  <circle cx="50" cy="50" r="48" fill="url(#grad1)"/>
  
  <!-- Dollar Sign -->
  <path d="M 50 20 L 50 80 M 35 30 Q 35 25 40 25 L 60 25 Q 65 25 65 30 Q 65 35 60 35 L 40 35 Q 35 35 35 40 Q 35 45 40 45 L 60 45 Q 65 45 65 50 Q 65 55 60 55 L 40 55 Q 35 55 35 60 Q 35 65 40 65 L 60 65 Q 65 65 65 70" 
        stroke="white" 
        stroke-width="4" 
        fill="none" 
        stroke-linecap="round" 
        stroke-linejoin="round"/>
  
  <!-- Coin Details -->
  <circle cx="50" cy="50" r="42" fill="none" stroke="white" stroke-width="2" opacity="0.3"/>
</svg>
